<?xml version="1.0" standalone="no"?>
<!DOCTYPE svg PUBLIC "-//W3C//DTD SVG 20010904//EN"
 "http://www.w3.org/TR/2001/REC-SVG-20010904/DTD/svg10.dtd">
<svg version="1.0" xmlns="http://www.w3.org/2000/svg"
 width="16.000000pt" height="16.000000pt" viewBox="0 0 16.000000 16.000000"
 preserveAspectRatio="xMidYMid meet">
<metadata>
Created by potrace 1.11, written by Peter Selinger 2001-2013
</metadata>
<g transform="translate(0.000000,16.000000) scale(0.003125,-0.003125)"
fill="#000000" stroke="none">
<path d="M3420 4589 c-39 -16 -75 -42 -126 -93 -146 -146 -230 -390 -249 -732
l-7 -121 -152 -101 c-187 -124 -225 -143 -406 -203 -140 -46 -145 -47 -158
-28 -12 18 -28 19 -231 19 l-217 0 -29 -30 c-23 -24 -30 -41 -33 -89 -4 -58
-5 -59 -38 -66 l-34 -6 0 -93 c0 -80 -3 -98 -23 -127 -21 -31 -26 -33 -70 -30
-48 3 -48 2 -45 -26 2 -21 8 -27 21 -25 17 3 16 -2 -7 -41 -25 -42 -26 -50
-26 -205 0 -147 -2 -162 -17 -163 -23 -1 78 -32 182 -56 75 -17 77 -18 40 -22
-38 -4 -37 -4 35 -22 l75 -19 -205 5 c-138 3 -228 10 -275 21 -159 36 -155 36
-175 11 -25 -30 -35 -16 -20 27 17 53 -4 74 -41 40 -17 -15 -22 -15 -61 1 -24
9 -76 19 -116 22 -65 5 -75 4 -87 -14 -20 -28 -114 -41 -131 -18 -10 14 -17
14 -70 0 -32 -8 -71 -15 -86 -15 l-27 0 24 37 c14 20 23 38 21 41 -3 2 -23 -3
-46 -12 -22 -9 -53 -16 -68 -16 -68 0 -71 -67 -6 -137 18 -19 23 -34 19 -50
-8 -32 23 -59 76 -68 55 -9 160 -58 202 -94 66 -57 125 -89 227 -126 124 -44
240 -102 293 -148 47 -39 56 -75 57 -232 1 -128 10 -180 48 -255 26 -53 27
-62 30 -236 3 -150 1 -187 -12 -212 -21 -41 -65 -71 -121 -81 -39 -7 -56 -19
-111 -75 -35 -36 -64 -70 -64 -76 0 -5 9 -19 20 -30 25 -25 111 -27 184 -5 80
24 90 21 104 -30 24 -91 161 -186 322 -222 116 -27 399 -24 502 5 195 54 300
144 315 271 9 78 -12 136 -71 198 -58 59 -51 22 -62 345 -7 206 -18 190 111
158 44 -11 124 -23 178 -26 l98 -7 15 -35 c8 -19 69 -91 137 -161 76 -78 130
-142 142 -169 17 -40 17 -45 2 -76 -9 -19 -33 -47 -54 -62 -89 -65 -133 -119
-133 -162 0 -27 7 -29 153 -31 191 -3 248 23 311 143 23 43 26 61 26 151 0 86
6 126 36 241 40 156 48 268 25 345 -13 43 -13 53 7 120 48 161 11 370 -85 488
-61 73 -227 168 -448 254 -160 62 -253 81 -369 74 -55 -3 -108 -8 -116 -11
-13 -5 -15 16 -12 164 3 157 2 173 -17 205 -11 19 -17 35 -12 35 11 0 21 38
14 56 -3 8 -19 14 -37 14 -48 1 -86 57 -86 125 l0 53 43 6 c238 34 454 25 699
-30 l67 -15 43 -80 c85 -160 223 -318 347 -397 82 -52 154 -75 241 -76 64 -1
84 3 142 31 223 105 355 390 374 808 28 596 -227 1135 -599 1265 -42 15 -94
23 -162 26 -85 4 -108 1 -155 -17z m-1713 -1755 c-3 -3 -12 -4 -19 -1 -8 3 -5
6 6 6 11 1 17 -2 13 -5z m451 -11 c-10 -2 -28 -2 -40 0 -13 2 -5 4 17 4 22 1
32 -1 23 -4z m757 -448 c143 -49 297 -126 282 -141 -3 -3 -35 2 -73 11 -84 19
-406 36 -771 42 -167 2 -273 7 -273 13 0 6 11 10 25 10 13 0 93 18 177 39 84
21 187 44 228 51 41 6 82 13 90 15 8 2 58 2 110 1 79 -2 113 -9 205 -41z
m-1805 -9 c0 -18 -50 -61 -104 -88 -51 -26 -163 -36 -206 -18 -36 15 -50 54
-27 77 26 26 107 42 225 42 90 1 112 -2 112 -13z"/>
<path d="M827 2463 c-19 -19 -5 -33 33 -33 27 0 40 4 40 14 0 19 -58 34 -73
19z"/>
</g>
</svg>
